<?xml version="1.0" standalone="no"?>
<svg xmlns:xlink="http://www.w3.org/1999/xlink" id="wave" style="transform:rotate(0deg); transition: 0.3s" viewBox="0 0 1440 280" version="1.1" xmlns="http://www.w3.org/2000/svg"><defs><linearGradient id="sw-gradient-0" x1="0" x2="0" y1="1" y2="0"><stop stop-color="rgba(0, 153, 255, 1)" offset="0%"/><stop stop-color="rgba(0, 153, 255, 1)" offset="100%"/></linearGradient></defs><path style="transform:translate(0, 0px); opacity:1" fill="url(#sw-gradient-0)" d="M0,168L60,177.3C120,187,240,205,360,214.7C480,224,600,224,720,196C840,168,960,112,1080,84C1200,56,1320,56,1440,84C1560,112,1680,168,1800,177.3C1920,187,2040,149,2160,140C2280,131,2400,149,2520,172.7C2640,196,2760,224,2880,219.3C3000,215,3120,177,3240,140C3360,103,3480,65,3600,42C3720,19,3840,9,3960,18.7C4080,28,4200,56,4320,84C4440,112,4560,140,4680,154C4800,168,4920,168,5040,177.3C5160,187,5280,205,5400,177.3C5520,149,5640,75,5760,74.7C5880,75,6000,149,6120,177.3C6240,205,6360,187,6480,149.3C6600,112,6720,56,6840,65.3C6960,75,7080,149,7200,186.7C7320,224,7440,224,7560,224C7680,224,7800,224,7920,191.3C8040,159,8160,93,8280,74.7C8400,56,8520,84,8580,98L8640,112L8640,280L8580,280C8520,280,8400,280,8280,280C8160,280,8040,280,7920,280C7800,280,7680,280,7560,280C7440,280,7320,280,7200,280C7080,280,6960,280,6840,280C6720,280,6600,280,6480,280C6360,280,6240,280,6120,280C6000,280,5880,280,5760,280C5640,280,5520,280,5400,280C5280,280,5160,280,5040,280C4920,280,4800,280,4680,280C4560,280,4440,280,4320,280C4200,280,4080,280,3960,280C3840,280,3720,280,3600,280C3480,280,3360,280,3240,280C3120,280,3000,280,2880,280C2760,280,2640,280,2520,280C2400,280,2280,280,2160,280C2040,280,1920,280,1800,280C1680,280,1560,280,1440,280C1320,280,1200,280,1080,280C960,280,840,280,720,280C600,280,480,280,360,280C240,280,120,280,60,280L0,280Z"/><defs><linearGradient id="sw-gradient-1" x1="0" x2="0" y1="1" y2="0"><stop stop-color="rgba(0, 153, 255, 1)" offset="0%"/><stop stop-color="rgba(0, 153, 255, 1)" offset="100%"/></linearGradient></defs><path style="transform:translate(0, 50px); opacity:0.9" fill="url(#sw-gradient-1)" d="M0,56L60,74.7C120,93,240,131,360,130.7C480,131,600,93,720,84C840,75,960,93,1080,116.7C1200,140,1320,168,1440,182C1560,196,1680,196,1800,205.3C1920,215,2040,233,2160,238C2280,243,2400,233,2520,205.3C2640,177,2760,131,2880,116.7C3000,103,3120,121,3240,135.3C3360,149,3480,159,3600,135.3C3720,112,3840,56,3960,32.7C4080,9,4200,19,4320,56C4440,93,4560,159,4680,154C4800,149,4920,75,5040,46.7C5160,19,5280,37,5400,51.3C5520,65,5640,75,5760,84C5880,93,6000,103,6120,102.7C6240,103,6360,93,6480,84C6600,75,6720,65,6840,56C6960,47,7080,37,7200,51.3C7320,65,7440,103,7560,126C7680,149,7800,159,7920,177.3C8040,196,8160,224,8280,210C8400,196,8520,140,8580,112L8640,84L8640,280L8580,280C8520,280,8400,280,8280,280C8160,280,8040,280,7920,280C7800,280,7680,280,7560,280C7440,280,7320,280,7200,280C7080,280,6960,280,6840,280C6720,280,6600,280,6480,280C6360,280,6240,280,6120,280C6000,280,5880,280,5760,280C5640,280,5520,280,5400,280C5280,280,5160,280,5040,280C4920,280,4800,280,4680,280C4560,280,4440,280,4320,280C4200,280,4080,280,3960,280C3840,280,3720,280,3600,280C3480,280,3360,280,3240,280C3120,280,3000,280,2880,280C2760,280,2640,280,2520,280C2400,280,2280,280,2160,280C2040,280,1920,280,1800,280C1680,280,1560,280,1440,280C1320,280,1200,280,1080,280C960,280,840,280,720,280C600,280,480,280,360,280C240,280,120,280,60,280L0,280Z"/><defs><linearGradient id="sw-gradient-2" x1="0" x2="0" y1="1" y2="0"><stop stop-color="rgba(79, 106, 157, 1)" offset="0%"/><stop stop-color="rgba(79, 69, 125, 1)" offset="100%"/></linearGradient></defs><path style="transform:translate(0, 100px); opacity:0.8" fill="url(#sw-gradient-2)" d="M0,112L60,121.3C120,131,240,149,360,163.3C480,177,600,187,720,158.7C840,131,960,65,1080,56C1200,47,1320,93,1440,130.7C1560,168,1680,196,1800,205.3C1920,215,2040,205,2160,168C2280,131,2400,65,2520,32.7C2640,0,2760,0,2880,23.3C3000,47,3120,93,3240,107.3C3360,121,3480,103,3600,93.3C3720,84,3840,84,3960,84C4080,84,4200,84,4320,107.3C4440,131,4560,177,4680,163.3C4800,149,4920,75,5040,60.7C5160,47,5280,93,5400,130.7C5520,168,5640,196,5760,172.7C5880,149,6000,75,6120,46.7C6240,19,6360,37,6480,51.3C6600,65,6720,75,6840,98C6960,121,7080,159,7200,158.7C7320,159,7440,121,7560,107.3C7680,93,7800,103,7920,112C8040,121,8160,131,8280,126C8400,121,8520,103,8580,93.3L8640,84L8640,280L8580,280C8520,280,8400,280,8280,280C8160,280,8040,280,7920,280C7800,280,7680,280,7560,280C7440,280,7320,280,7200,280C7080,280,6960,280,6840,280C6720,280,6600,280,6480,280C6360,280,6240,280,6120,280C6000,280,5880,280,5760,280C5640,280,5520,280,5400,280C5280,280,5160,280,5040,280C4920,280,4800,280,4680,280C4560,280,4440,280,4320,280C4200,280,4080,280,3960,280C3840,280,3720,280,3600,280C3480,280,3360,280,3240,280C3120,280,3000,280,2880,280C2760,280,2640,280,2520,280C2400,280,2280,280,2160,280C2040,280,1920,280,1800,280C1680,280,1560,280,1440,280C1320,280,1200,280,1080,280C960,280,840,280,720,280C600,280,480,280,360,280C240,280,120,280,60,280L0,280Z"/></svg>