<?xml version="1.0" standalone="no"?>
<svg xmlns:xlink="http://www.w3.org/1999/xlink" id="wave" style="transform:rotate(0deg); transition: 0.3s" viewBox="0 0 1440 490" version="1.1" xmlns="http://www.w3.org/2000/svg"><defs><linearGradient id="sw-gradient-0" x1="0" x2="0" y1="1" y2="0"><stop stop-color="rgba(58, 12, 163, 1)" offset="0%"/><stop stop-color="rgba(1, 42, 74, 1)" offset="100%"/></linearGradient></defs><path style="transform:translate(0, 0px); opacity:1" fill="url(#sw-gradient-0)" d="M0,0L240,57.2C480,114,960,229,1440,245C1920,261,2400,180,2880,122.5C3360,65,3840,33,4320,49C4800,65,5280,131,5760,130.7C6240,131,6720,65,7200,57.2C7680,49,8160,98,8640,122.5C9120,147,9600,147,10080,187.8C10560,229,11040,310,11520,343C12000,376,12480,359,12960,351.2C13440,343,13920,343,14400,326.7C14880,310,15360,278,15840,245C16320,212,16800,180,17280,204.2C17760,229,18240,310,18720,359.3C19200,408,19680,425,20160,392C20640,359,21120,278,21600,212.3C22080,147,22560,98,23040,130.7C23520,163,24000,278,24480,334.8C24960,392,25440,392,25920,375.7C26400,359,26880,327,27360,302.2C27840,278,28320,261,28800,220.5C29280,180,29760,114,30240,89.8C30720,65,31200,82,31680,89.8C32160,98,32640,98,33120,98C33600,98,34080,98,34320,98L34560,98L34560,490L34320,490C34080,490,33600,490,33120,490C32640,490,32160,490,31680,490C31200,490,30720,490,30240,490C29760,490,29280,490,28800,490C28320,490,27840,490,27360,490C26880,490,26400,490,25920,490C25440,490,24960,490,24480,490C24000,490,23520,490,23040,490C22560,490,22080,490,21600,490C21120,490,20640,490,20160,490C19680,490,19200,490,18720,490C18240,490,17760,490,17280,490C16800,490,16320,490,15840,490C15360,490,14880,490,14400,490C13920,490,13440,490,12960,490C12480,490,12000,490,11520,490C11040,490,10560,490,10080,490C9600,490,9120,490,8640,490C8160,490,7680,490,7200,490C6720,490,6240,490,5760,490C5280,490,4800,490,4320,490C3840,490,3360,490,2880,490C2400,490,1920,490,1440,490C960,490,480,490,240,490L0,490Z"/><defs><linearGradient id="sw-gradient-1" x1="0" x2="0" y1="1" y2="0"><stop stop-color="rgba(255, 195, 0, 1)" offset="0%"/><stop stop-color="rgba(255, 179, 11, 1)" offset="100%"/></linearGradient></defs><path style="transform:translate(0, 50px); opacity:0.9" fill="url(#sw-gradient-1)" d="M0,245L240,220.5C480,196,960,147,1440,130.7C1920,114,2400,131,2880,179.7C3360,229,3840,310,4320,318.5C4800,327,5280,261,5760,196C6240,131,6720,65,7200,65.3C7680,65,8160,131,8640,147C9120,163,9600,131,10080,155.2C10560,180,11040,261,11520,285.8C12000,310,12480,278,12960,245C13440,212,13920,180,14400,179.7C14880,180,15360,212,15840,228.7C16320,245,16800,245,17280,269.5C17760,294,18240,343,18720,310.3C19200,278,19680,163,20160,130.7C20640,98,21120,147,21600,163.3C22080,180,22560,163,23040,204.2C23520,245,24000,343,24480,351.2C24960,359,25440,278,25920,261.3C26400,245,26880,294,27360,334.8C27840,376,28320,408,28800,400.2C29280,392,29760,343,30240,326.7C30720,310,31200,327,31680,302.2C32160,278,32640,212,33120,204.2C33600,196,34080,245,34320,269.5L34560,294L34560,490L34320,490C34080,490,33600,490,33120,490C32640,490,32160,490,31680,490C31200,490,30720,490,30240,490C29760,490,29280,490,28800,490C28320,490,27840,490,27360,490C26880,490,26400,490,25920,490C25440,490,24960,490,24480,490C24000,490,23520,490,23040,490C22560,490,22080,490,21600,490C21120,490,20640,490,20160,490C19680,490,19200,490,18720,490C18240,490,17760,490,17280,490C16800,490,16320,490,15840,490C15360,490,14880,490,14400,490C13920,490,13440,490,12960,490C12480,490,12000,490,11520,490C11040,490,10560,490,10080,490C9600,490,9120,490,8640,490C8160,490,7680,490,7200,490C6720,490,6240,490,5760,490C5280,490,4800,490,4320,490C3840,490,3360,490,2880,490C2400,490,1920,490,1440,490C960,490,480,490,240,490L0,490Z"/></svg>