<?xml version="1.0" standalone="no"?>
<svg xmlns:xlink="http://www.w3.org/1999/xlink" id="wave" style="transform:rotate(0deg); transition: 0.3s" viewBox="0 0 1440 490" version="1.1" xmlns="http://www.w3.org/2000/svg"><defs><linearGradient id="sw-gradient-0" x1="0" x2="0" y1="1" y2="0"><stop stop-color="rgba(243, 106, 62, 0)" offset="0%"/><stop stop-color="rgba(255, 179, 11, 1)" offset="100%"/></linearGradient></defs><path style="transform:translate(0, 0px); opacity:1" fill="url(#sw-gradient-0)" d="M0,98L21.8,98C43.6,98,87,98,131,147C174.5,196,218,294,262,318.5C305.5,343,349,294,393,245C436.4,196,480,147,524,179.7C567.3,212,611,327,655,326.7C698.2,327,742,212,785,155.2C829.1,98,873,98,916,114.3C960,131,1004,163,1047,179.7C1090.9,196,1135,196,1178,220.5C1221.8,245,1265,294,1309,269.5C1352.7,245,1396,147,1440,138.8C1483.6,131,1527,212,1571,212.3C1614.5,212,1658,131,1702,106.2C1745.5,82,1789,114,1833,130.7C1876.4,147,1920,147,1964,179.7C2007.3,212,2051,278,2095,277.7C2138.2,278,2182,212,2225,187.8C2269.1,163,2313,180,2356,212.3C2400,245,2444,294,2487,334.8C2530.9,376,2575,408,2618,359.3C2661.8,310,2705,180,2749,179.7C2792.7,180,2836,310,2880,310.3C2923.6,310,2967,180,3011,114.3C3054.5,49,3098,49,3120,49L3141.8,49L3141.8,490L3120,490C3098.2,490,3055,490,3011,490C2967.3,490,2924,490,2880,490C2836.4,490,2793,490,2749,490C2705.5,490,2662,490,2618,490C2574.5,490,2531,490,2487,490C2443.6,490,2400,490,2356,490C2312.7,490,2269,490,2225,490C2181.8,490,2138,490,2095,490C2050.9,490,2007,490,1964,490C1920,490,1876,490,1833,490C1789.1,490,1745,490,1702,490C1658.2,490,1615,490,1571,490C1527.3,490,1484,490,1440,490C1396.4,490,1353,490,1309,490C1265.5,490,1222,490,1178,490C1134.5,490,1091,490,1047,490C1003.6,490,960,490,916,490C872.7,490,829,490,785,490C741.8,490,698,490,655,490C610.9,490,567,490,524,490C480,490,436,490,393,490C349.1,490,305,490,262,490C218.2,490,175,490,131,490C87.3,490,44,490,22,490L0,490Z"/><defs><linearGradient id="sw-gradient-1" x1="0" x2="0" y1="1" y2="0"><stop stop-color="rgba(243, 106, 62, 0)" offset="0%"/><stop stop-color="rgba(255, 179, 11, 1)" offset="100%"/></linearGradient></defs><path style="transform:translate(0, 50px); opacity:0.9" fill="url(#sw-gradient-1)" d="M0,196L21.8,179.7C43.6,163,87,131,131,138.8C174.5,147,218,196,262,212.3C305.5,229,349,212,393,220.5C436.4,229,480,261,524,294C567.3,327,611,359,655,334.8C698.2,310,742,229,785,228.7C829.1,229,873,310,916,310.3C960,310,1004,229,1047,236.8C1090.9,245,1135,343,1178,351.2C1221.8,359,1265,278,1309,253.2C1352.7,229,1396,261,1440,269.5C1483.6,278,1527,261,1571,228.7C1614.5,196,1658,147,1702,122.5C1745.5,98,1789,98,1833,130.7C1876.4,163,1920,229,1964,253.2C2007.3,278,2051,261,2095,261.3C2138.2,261,2182,278,2225,245C2269.1,212,2313,131,2356,122.5C2400,114,2444,180,2487,220.5C2530.9,261,2575,278,2618,294C2661.8,310,2705,327,2749,285.8C2792.7,245,2836,147,2880,89.8C2923.6,33,2967,16,3011,49C3054.5,82,3098,163,3120,204.2L3141.8,245L3141.8,490L3120,490C3098.2,490,3055,490,3011,490C2967.3,490,2924,490,2880,490C2836.4,490,2793,490,2749,490C2705.5,490,2662,490,2618,490C2574.5,490,2531,490,2487,490C2443.6,490,2400,490,2356,490C2312.7,490,2269,490,2225,490C2181.8,490,2138,490,2095,490C2050.9,490,2007,490,1964,490C1920,490,1876,490,1833,490C1789.1,490,1745,490,1702,490C1658.2,490,1615,490,1571,490C1527.3,490,1484,490,1440,490C1396.4,490,1353,490,1309,490C1265.5,490,1222,490,1178,490C1134.5,490,1091,490,1047,490C1003.6,490,960,490,916,490C872.7,490,829,490,785,490C741.8,490,698,490,655,490C610.9,490,567,490,524,490C480,490,436,490,393,490C349.1,490,305,490,262,490C218.2,490,175,490,131,490C87.3,490,44,490,22,490L0,490Z"/><defs><linearGradient id="sw-gradient-2" x1="0" x2="0" y1="1" y2="0"><stop stop-color="rgba(243, 106, 62, 1)" offset="0%"/><stop stop-color="rgba(255, 179, 11, 0)" offset="100%"/></linearGradient></defs><path style="transform:translate(0, 100px); opacity:0.8" fill="url(#sw-gradient-2)" d="M0,98L21.8,147C43.6,196,87,294,131,277.7C174.5,261,218,131,262,81.7C305.5,33,349,65,393,106.2C436.4,147,480,196,524,212.3C567.3,229,611,212,655,228.7C698.2,245,742,294,785,302.2C829.1,310,873,278,916,253.2C960,229,1004,212,1047,220.5C1090.9,229,1135,261,1178,302.2C1221.8,343,1265,392,1309,408.3C1352.7,425,1396,408,1440,408.3C1483.6,408,1527,425,1571,383.8C1614.5,343,1658,245,1702,196C1745.5,147,1789,147,1833,196C1876.4,245,1920,343,1964,334.8C2007.3,327,2051,212,2095,187.8C2138.2,163,2182,229,2225,212.3C2269.1,196,2313,98,2356,122.5C2400,147,2444,294,2487,302.2C2530.9,310,2575,180,2618,171.5C2661.8,163,2705,278,2749,285.8C2792.7,294,2836,196,2880,187.8C2923.6,180,2967,261,3011,261.3C3054.5,261,3098,180,3120,138.8L3141.8,98L3141.8,490L3120,490C3098.2,490,3055,490,3011,490C2967.3,490,2924,490,2880,490C2836.4,490,2793,490,2749,490C2705.5,490,2662,490,2618,490C2574.5,490,2531,490,2487,490C2443.6,490,2400,490,2356,490C2312.7,490,2269,490,2225,490C2181.8,490,2138,490,2095,490C2050.9,490,2007,490,1964,490C1920,490,1876,490,1833,490C1789.1,490,1745,490,1702,490C1658.2,490,1615,490,1571,490C1527.3,490,1484,490,1440,490C1396.4,490,1353,490,1309,490C1265.5,490,1222,490,1178,490C1134.5,490,1091,490,1047,490C1003.6,490,960,490,916,490C872.7,490,829,490,785,490C741.8,490,698,490,655,490C610.9,490,567,490,524,490C480,490,436,490,393,490C349.1,490,305,490,262,490C218.2,490,175,490,131,490C87.3,490,44,490,22,490L0,490Z"/><defs><linearGradient id="sw-gradient-3" x1="0" x2="0" y1="1" y2="0"><stop stop-color="rgba(243, 106, 62, 0)" offset="0%"/><stop stop-color="rgba(255, 179, 11, 1)" offset="100%"/></linearGradient></defs><path style="transform:translate(0, 150px); opacity:0.7" fill="url(#sw-gradient-3)" d="M0,0L21.8,0C43.6,0,87,0,131,0C174.5,0,218,0,262,73.5C305.5,147,349,294,393,343C436.4,392,480,343,524,334.8C567.3,327,611,359,655,310.3C698.2,261,742,131,785,98C829.1,65,873,131,916,179.7C960,229,1004,261,1047,236.8C1090.9,212,1135,131,1178,106.2C1221.8,82,1265,114,1309,138.8C1352.7,163,1396,180,1440,228.7C1483.6,278,1527,359,1571,359.3C1614.5,359,1658,278,1702,253.2C1745.5,229,1789,261,1833,285.8C1876.4,310,1920,327,1964,302.2C2007.3,278,2051,212,2095,204.2C2138.2,196,2182,245,2225,220.5C2269.1,196,2313,98,2356,49C2400,0,2444,0,2487,0C2530.9,0,2575,0,2618,24.5C2661.8,49,2705,98,2749,155.2C2792.7,212,2836,278,2880,294C2923.6,310,2967,278,3011,236.8C3054.5,196,3098,147,3120,122.5L3141.8,98L3141.8,490L3120,490C3098.2,490,3055,490,3011,490C2967.3,490,2924,490,2880,490C2836.4,490,2793,490,2749,490C2705.5,490,2662,490,2618,490C2574.5,490,2531,490,2487,490C2443.6,490,2400,490,2356,490C2312.7,490,2269,490,2225,490C2181.8,490,2138,490,2095,490C2050.9,490,2007,490,1964,490C1920,490,1876,490,1833,490C1789.1,490,1745,490,1702,490C1658.2,490,1615,490,1571,490C1527.3,490,1484,490,1440,490C1396.4,490,1353,490,1309,490C1265.5,490,1222,490,1178,490C1134.5,490,1091,490,1047,490C1003.6,490,960,490,916,490C872.7,490,829,490,785,490C741.8,490,698,490,655,490C610.9,490,567,490,524,490C480,490,436,490,393,490C349.1,490,305,490,262,490C218.2,490,175,490,131,490C87.3,490,44,490,22,490L0,490Z"/></svg>